<?xml version="1.0" encoding="utf-8"?>
<!-- Generator: Adobe Illustrator 21.0.2, SVG Export Plug-In . SVG Version: 6.00 Build 0)  -->
<svg version="1.1" id="Layer_2" xmlns="http://www.w3.org/2000/svg" xmlns:xlink="http://www.w3.org/1999/xlink" x="0px" y="0px"
	 viewBox="0 0 1920 1080" style="enable-background:new 0 0 1920 1080;" xml:space="preserve">
<style type="text/css">
	.st0{fill:#2D292A;}
	.st1{fill:#EB6E04;}
	.st2{opacity:0.7;fill:url(#SVGID_1_);enable-background:new    ;}
	.st3{opacity:0.7;fill:url(#SVGID_2_);enable-background:new    ;}
	.st4{opacity:0.7;fill:url(#SVGID_3_);enable-background:new    ;}
	.st5{opacity:0.7;fill:url(#SVGID_4_);enable-background:new    ;}
</style>
<path class="st0" d="M953,294L841,497c-23.8-54.3-49-104.8-76.9-148.2c-24.3-38-66.2-61.1-111.2-61.7L257,282
	c15,43.4,26,89.5,106,88h242c46.5,0.4,89.7,15.6,120.3,87.1c11.8,27.5,24.1,54.7,37.5,81.5L836,685l117-202V294z"/>
<path class="st1" d="M636,393c30.8-1.4,60.8,35.7,90,104c-27.1-13.9-57.1-20.6-90-20H430c-57.8-0.8-73.4-43.4-91-84H636z"/>
<path class="st0" d="M953,519v186L838,909L701,647c-28-65.9-90.2-75-163.5-65.7c-6.8,0.9-13.7,1.2-20.6,0.9
	c-58.1-2.8-69.7-46.4-86.9-85.1h228.1c6.8,0,13.5,0.4,20.2,1.4c29,4.4,55.8,18.2,75.5,61.9c3,6.6,6,13.1,9.2,19.5L835,723L953,519z"
	/>
<path class="st1" d="M1084.4,430.6c6.7-7.7,11.7-16.2,15.1-25.6c3.4-9.3,5-18.9,4.9-28.7c-0.1-9.8-1.8-19.4-5.2-28.7
	c-3.4-9.4-8.4-18-15.1-25.9c-14.7-17.2-34-25.8-57.8-25.8h-36.1l24.8,28.8l0.2,0.3h11.1c15.1,0,27.2,5.3,36.1,15.8
	c4.3,5,7.6,10.7,9.9,16.8c2.3,6.2,3.5,12.4,3.6,18.8s-0.9,12.6-3.1,18.6s-5.4,11.6-9.7,16.6c-8.7,10.1-20.9,15.1-36.7,15.1h-35.7
	l26,29.8l1.3,1.5l48.1,55.5h38.3l-53.3-61.1C1064.2,448.4,1075.3,441.2,1084.4,430.6z M961,295.9v217.6h28.6V295.9H961z"/>
<path class="st1" d="M1334.4,360.9c-5.7-13.7-13.7-25.6-23.7-35.8c-10.1-10.2-21.8-18.3-35.2-24.1c-13.4-5.8-27.7-8.8-42.9-8.8
	c-15.4,0-29.8,2.9-43.2,8.8c-13.4,5.8-25.2,13.9-35.3,24.1s-18,22.2-23.7,35.8c-5.7,13.6-8.6,28.2-8.6,43.6
	c0,15.6,2.9,30.3,8.6,43.9c1.7,4,3.5,7.8,5.6,11.5c4.9,9,11,17,18.1,24.3c10.1,10.2,21.8,18.3,35.3,24.1c13.4,5.8,27.8,8.8,43.2,8.8
	c15.2,0,29.4-2.9,42.9-8.8c13.4-5.8,25.2-13.9,35.2-24.1c2.3-2.3,4.4-4.7,6.5-7.2c7-8.5,12.8-18.1,17.2-28.6
	c5.7-13.7,8.6-28.3,8.6-43.9C1343,389.1,1340.1,374.6,1334.4,360.9z M1308.4,436.1c-4,10.2-10,19.4-18,27.6c-2,2.1-4.2,4-6.3,5.8
	c-6.4,5.3-13.3,9.5-20.8,12.5c-10.1,4.1-20.4,6.1-30.9,6.1s-20.8-2-30.9-6.1s-19.1-10.2-27.1-18.3c-2.2-2.3-4.3-4.6-6.2-7.1
	c-5-6.3-8.9-13.1-11.8-20.5c-4-10.2-6-20.7-6-31.4c0-10.7,2-21.1,6-31.4c4-10.2,10-19.4,18-27.6c8-8.1,17.1-14.3,27.1-18.3
	c10.1-4.1,20.3-6.1,30.9-6.1c10.5,0,20.8,2,30.9,6.1s19.1,10.2,27.1,18.3c8,8.1,14,17.3,18,27.6c4,10.2,6,20.7,6,31.4
	C1314.4,415.4,1312.4,425.8,1308.4,436.1z"/>
<path class="st1" d="M1462.2,295.9l-40,77.9l-39.6-77.9h-30.9l56.2,110.3v107.3h28.6V406.2l56.5-110.3L1462.2,295.9L1462.2,295.9z"
	/>
<path class="st1" d="M1645.6,337.2c-2.2-6.8-5.4-13.1-9.6-18.8c-2.3-3.1-4.9-6-7.8-8.6c-6.9-6.4-14.6-11.1-23.1-14.2
	c-8.4-3.1-17-4.6-25.8-4.6s-17.4,1.7-25.8,5s-16.1,8-23.1,14.2c-2.8,2.4-5.2,5-7.4,7.8c-4.6,5.7-8.1,12.1-10.4,19.3
	c-3.5,10.6-5.2,21.5-5.2,32.7v143.3h28.6V379.1c0-4.2,0.1-8.4,0.2-12.7c0.1-4.3,0.6-8.5,1.5-12.7s2.2-8.1,4.1-11.9
	c1.8-3.6,4.1-6.8,7.2-9.8c0.1-0.2,0.3-0.3,0.5-0.5c4.1-3.7,8.8-6.6,14-8.6s10.5-3,15.9-3s10.7,0.9,15.8,2.8
	c5.1,1.9,9.8,4.8,14.1,8.8c0.2,0.2,0.3,0.3,0.5,0.5c3,2.8,5.3,5.9,7,9.5c1.7,3.7,3,7.7,3.9,11.7c0.9,4.1,1.4,8.3,1.5,12.7
	c0.1,4.4,0.2,8.7,0.2,12.9V426h-85.1l25,29.1h60.1v58.1h28.6V369.8C1650.7,358.6,1649,347.7,1645.6,337.2z"/>
<path class="st1" d="M1698.1,483.8l25,29.1h89v-29.1L1698.1,483.8L1698.1,483.8z M1669.2,295.2v217.6h28.6V295.2H1669.2z"/>
<g>
	<path class="st0" d="M992,570.5c15.1,2.3,27.5,9.1,37.3,20.4c5.6,6.5,9.9,13.6,12.8,21.5s4.4,15.9,4.4,24.1
		c0,8.2-1.4,16.3-4.2,24.1c-2.8,7.9-7.1,15-12.8,21.5c-12.2,13.9-28.5,20.8-48.8,20.8H960v-0.2v-133h17.2v115.5h3.5
		c15.2,0,27.3-5,36.1-14.9c4.2-4.8,7.3-10.2,9.4-16s3.1-11.7,3-17.8s-1.1-12-3.2-17.9s-5.2-11.1-9.4-15.9
		c-9-10.2-21.1-15.3-36.5-15.3L992,570.5z"/>
	<path class="st0" d="M1074.6,587.3v97.5h68.5v17.8h-85.7V569.5h85.7v17.8H1074.6z M1075,649.3h59.5v17.8h-44.3L1075,649.3z"/>
	<path class="st0" d="M1185.1,684.4c4.9,2.8,10.3,3.9,16.1,3.3c5.8-0.6,11-2.7,15.5-6.2c2.3-1.7,4.1-3.9,5.4-6.6
		c1.2-2.6,1.9-5.3,1.9-8s-0.6-5.4-1.7-8s-2.8-4.9-5-7c-3.4-3.1-7.3-5.2-11.6-6.3c-4.4-1.1-8.8-1.9-13.4-2.5s-9-1.4-13.4-2.5
		s-8.2-3.2-11.6-6.3c-4.2-3.8-7.3-8.2-9.4-13.3s-3-10.3-2.8-15.7c0.2-5.3,1.5-10.4,3.8-15.3c2.3-4.9,5.8-9.1,10.3-12.6
		c4.4-3.4,9.2-5.9,14.3-7.5c5.1-1.6,10.3-2.4,15.5-2.2c5.2,0.1,10.3,1.2,15.2,3.2c4.9,2,9.5,5,13.7,8.9c6.9,6.6,11.1,14.7,12.5,24.2
		h-17.6c-0.9-4.3-3.1-8.1-6.4-11.3c-2.6-2.4-5.5-4.2-8.6-5.5s-6.3-1.8-9.7-1.9c-3.3-0.1-6.6,0.4-9.9,1.4s-6.2,2.6-9,4.7
		c-2.3,1.9-4.1,4.1-5.4,6.7c-1.2,2.6-1.9,5.2-1.9,7.9s0.5,5.4,1.6,8.1c1,2.7,2.7,5,4.9,7.1c3.4,3.1,7.3,5.2,11.6,6.3
		c4.4,1.1,8.8,1.9,13.5,2.5c4.6,0.6,9.1,1.4,13.5,2.5s8.2,3.2,11.6,6.3c4.2,3.9,7.3,8.4,9.3,13.4s3,10.2,2.8,15.4
		c-0.1,5.3-1.4,10.3-3.7,15.2c-2.3,4.9-5.8,9.1-10.3,12.6c-3.9,3.1-8.1,5.5-12.7,7.1s-9.1,2.5-13.8,2.7c-4.6,0.2-9.2-0.3-13.8-1.6
		c-4.6-1.3-8.9-3.3-12.9-6L1185.1,684.4z M1173,697.6c-1.6-1.1-3.2-2.5-4.9-4.2c-6.9-6.3-11.1-14.3-12.5-24h17.4V697.6z"/>
	<path class="st0" d="M1251.6,569.5h17.2v133.1h-17.2V569.5z"/>
	<path class="st0" d="M1412.3,649.9v53.3h-17.2V684c-6.1,6.6-13.3,11.8-21.6,15.7c-8.3,3.8-17.1,5.8-26.6,5.8
		c-9.2,0-17.9-1.8-26-5.4c-8.1-3.6-15.1-8.5-21.1-14.7c-6-6.3-10.7-13.6-14.3-21.9c-3.5-8.3-5.3-17.3-5.3-26.9
		c0-9.4,1.8-18.3,5.3-26.7c3.5-8.3,8.3-15.7,14.3-21.9c6-6.3,13-11.2,21.1-14.7c8.1-3.6,16.7-5.4,26-5.4c7.7,0,15,1.3,21.9,3.8
		c6.9,2.6,13.2,6.1,18.8,10.6c5.7,4.5,10.5,9.9,14.5,16.2s7,13,9,20.3h-18c-2.5-6.9-6.3-12.9-11.5-18.2c-4.8-5-10.2-8.7-16.3-11.2
		c-6.1-2.5-12.2-3.7-18.5-3.7s-12.5,1.2-18.5,3.7c-6.1,2.5-11.5,6.2-16.3,11.2s-8.4,10.6-10.8,16.9c-2.4,6.3-3.6,12.7-3.6,19.2
		s1.2,12.9,3.6,19.2s6,11.9,10.8,16.9s10.2,8.7,16.3,11.2c6.1,2.5,12.2,3.7,18.5,3.7s12.5-1.2,18.5-3.7c6.1-2.5,11.5-6.2,16.3-11.2
		c0.8-0.8,1.5-1.6,2.2-2.4c0.7-0.8,1.4-1.7,2-2.6h-10.2l-15-17.8L1412.3,649.9L1412.3,649.9z"/>
	<path class="st0" d="M1492.3,569.9h17.2V703h-17.2v-30.1l-51.5-72.9v103h-17.2V569.9h17.2l51.5,72.9V569.9z"/>
</g>
<rect x="961" y="525" class="st0" width="549" height="29"/>
<linearGradient id="SVGID_1_" gradientUnits="userSpaceOnUse" x1="1232.4924" y1="535.1331" x2="1236.588" y2="623.1884" gradientTransform="matrix(1 0 0 -1 0 1082)">
	<stop  offset="0" style="stop-color:#000000"/>
	<stop  offset="8.507941e-02" style="stop-color:#0F0F0F;stop-opacity:0.9062"/>
	<stop  offset="0.2483" style="stop-color:#363636;stop-opacity:0.7262"/>
	<stop  offset="0.4728" style="stop-color:#747474;stop-opacity:0.4786"/>
	<stop  offset="0.747" style="stop-color:#CACACA;stop-opacity:0.1761"/>
	<stop  offset="0.9067" style="stop-color:#FFFFFF;stop-opacity:0"/>
</linearGradient>
<path class="st2" d="M1317.2,477.1c-2.1,2.5-4.2,4.9-6.5,7.2c-10.1,10.2-21.8,18.3-35.2,24.1c-13.4,5.8-27.7,8.5-42.9,8.8
	c-18.3,0.4-33.2-4.6-43.2-8.8c-16-6.7-26-17.6-35.3-24.1c-15.5-10.9,59.9,3.9,78.3,3.8C1255.9,488,1332.7,474.9,1317.2,477.1z"/>
<linearGradient id="SVGID_2_" gradientUnits="userSpaceOnUse" x1="1830.4731" y1="611.3741" x2="1758.6915" y2="562.9505" gradientTransform="matrix(1 0 0 -1 0 1082)">
	<stop  offset="0" style="stop-color:#000000"/>
	<stop  offset="8.507941e-02" style="stop-color:#0F0F0F;stop-opacity:0.9062"/>
	<stop  offset="0.2483" style="stop-color:#363636;stop-opacity:0.7262"/>
	<stop  offset="0.4728" style="stop-color:#747474;stop-opacity:0.4786"/>
	<stop  offset="0.747" style="stop-color:#CACACA;stop-opacity:0.1761"/>
	<stop  offset="0.9067" style="stop-color:#FFFFFF;stop-opacity:0"/>
</linearGradient>
<polygon class="st3" points="1812.1,483.8 1812.1,512.8 1791.5,512.8 1766.8,483.8 "/>
<linearGradient id="SVGID_3_" gradientUnits="userSpaceOnUse" x1="989.131" y1="793.5469" x2="1025.401" y2="762.9161" gradientTransform="matrix(1 0 0 -1 0 1082)">
	<stop  offset="0" style="stop-color:#000000"/>
	<stop  offset="8.507941e-02" style="stop-color:#0F0F0F;stop-opacity:0.9062"/>
	<stop  offset="0.2483" style="stop-color:#363636;stop-opacity:0.7262"/>
	<stop  offset="0.4728" style="stop-color:#747474;stop-opacity:0.4786"/>
	<stop  offset="0.747" style="stop-color:#CACACA;stop-opacity:0.1761"/>
	<stop  offset="0.9067" style="stop-color:#FFFFFF;stop-opacity:0"/>
</linearGradient>
<path class="st4" d="M1015,295.9c0,14.1,10,19.1,0,28.8l-24.8-28.8H1015z"/>
<linearGradient id="SVGID_4_" gradientUnits="userSpaceOnUse" x1="1574.5037" y1="804.3333" x2="1578.0601" y2="745.746" gradientTransform="matrix(1 0 0 -1 0 1082)">
	<stop  offset="0" style="stop-color:#000000"/>
	<stop  offset="8.507941e-02" style="stop-color:#0F0F0F;stop-opacity:0.9062"/>
	<stop  offset="0.2483" style="stop-color:#363636;stop-opacity:0.7262"/>
	<stop  offset="0.4728" style="stop-color:#747474;stop-opacity:0.4786"/>
	<stop  offset="0.747" style="stop-color:#CACACA;stop-opacity:0.1761"/>
	<stop  offset="0.9067" style="stop-color:#FFFFFF;stop-opacity:0"/>
</linearGradient>
<path class="st5" d="M1636,318.4c5.9,7.9,9.8,15.5,11,22.6l-37.4-9c-0.2-0.2-0.3-0.3-0.5-0.5c-4.3-4-9.1-6.9-14.1-8.8
	c-5.1-1.9-10.3-2.8-15.8-2.8c-5.4,0-10.7,1-15.9,3c-5.2,2-9.9,4.9-14,8.6c-0.2,0.2-0.3,0.3-0.5,0.5l-38.8,14
	c0.9-7.3,5.2-16.7,13-28.1c2.2-2.8,4.7-5.4,7.4-7.8c6.9-6.2,14.6-10.9,23.1-14.2c8.4-3.3,17.1-5,25.8-5c8.8,0,17.4,1.5,25.8,4.6
	c8.5,3.1,16.1,7.8,23.1,14.2C1631.1,312.5,1633.7,315.3,1636,318.4z"/>
</svg>
